<svg width="32" height="32" viewBox="0 0 32 32" fill="none" xmlns="http://www.w3.org/2000/svg">
<rect width="32" height="32" rx="5" fill="#05323C"/>
<path d="M19.3377 12.3313C19.1524 11.9608 18.7019 11.8106 18.3314 11.9958C17.9609 12.1811 17.8108 12.6316 17.996 13.0021L19.3377 12.3313ZM17.996 20.3313C17.8108 20.7017 17.9609 21.1522 18.3314 21.3375C18.7019 21.5227 19.1524 21.3726 19.3377 21.0021L17.996 20.3313ZM14.0043 13.0021C14.1896 12.6316 14.0394 12.1811 13.6689 11.9958C13.2984 11.8106 12.8479 11.9608 12.6627 12.3313L14.0043 13.0021ZM12.6627 21.0021C12.8479 21.3726 13.2984 21.5227 13.6689 21.3375C14.0394 21.1522 14.1896 20.7017 14.0043 20.3313L12.6627 21.0021ZM8.75015 8C8.75015 7.58579 8.41437 7.25 8.00015 7.25C7.58594 7.25 7.25015 7.58579 7.25015 8H8.75015ZM24.7502 8C24.7502 7.58579 24.4144 7.25 24.0002 7.25C23.5859 7.25 23.2502 7.58579 23.2502 8H24.7502ZM5.3335 7.25C4.91928 7.25 4.5835 7.58579 4.5835 8C4.5835 8.41421 4.91928 8.75 5.3335 8.75V7.25ZM26.6668 8.75C27.081 8.75 27.4168 8.41421 27.4168 8C27.4168 7.58579 27.081 7.25 26.6668 7.25V8.75ZM19.2502 8C19.2502 8.41421 19.5859 8.75 20.0002 8.75C20.4144 8.75 20.7502 8.41421 20.7502 8H19.2502ZM11.2502 8C11.2502 8.41421 11.5859 8.75 12.0002 8.75C12.4144 8.75 12.7502 8.41421 12.7502 8H11.2502ZM18.6668 12.6667C17.996 13.0021 17.9959 13.0018 17.9958 13.0016C17.9957 13.0015 17.9956 13.0012 17.9955 13.0011C17.9954 13.0008 17.9952 13.0005 17.9951 13.0002C17.9948 12.9997 17.9946 12.9992 17.9944 12.9988C17.994 12.9981 17.9938 12.9976 17.9938 12.9975C17.9936 12.9973 17.9941 12.9983 17.9952 13.0006C17.9974 13.0052 18.0019 13.015 18.0084 13.0298C18.0213 13.0594 18.0423 13.1095 18.0687 13.18C18.1216 13.321 18.1964 13.5438 18.2726 13.8486C18.4248 14.4576 18.5835 15.3965 18.5835 16.6667H20.0835C20.0835 15.2701 19.9088 14.2091 19.7278 13.4848C19.6373 13.1229 19.5454 12.8457 19.4732 12.6533C19.4372 12.5572 19.4061 12.4822 19.3826 12.4286C19.3709 12.4017 19.361 12.3802 19.3534 12.364C19.3496 12.3559 19.3464 12.3491 19.3437 12.3436C19.3424 12.3409 19.3412 12.3385 19.3402 12.3364C19.3397 12.3354 19.3392 12.3345 19.3388 12.3336C19.3386 12.3332 19.3384 12.3328 19.3382 12.3324C19.3381 12.3322 19.338 12.3319 19.3379 12.3318C19.3378 12.3315 19.3377 12.3313 18.6668 12.6667ZM18.5835 16.6667C18.5835 17.9368 18.4248 18.8758 18.2726 19.4848C18.1964 19.7895 18.1216 20.0123 18.0687 20.1533C18.0423 20.2238 18.0213 20.2739 18.0084 20.3036C18.0019 20.3184 17.9974 20.3281 17.9952 20.3327C17.9941 20.335 17.9936 20.3361 17.9938 20.3358C17.9938 20.3357 17.994 20.3353 17.9944 20.3345C17.9946 20.3341 17.9948 20.3337 17.9951 20.3331C17.9952 20.3328 17.9954 20.3326 17.9955 20.3322C17.9956 20.3321 17.9957 20.3318 17.9958 20.3318C17.9959 20.3315 17.996 20.3313 18.6668 20.6667C19.3377 21.0021 19.3378 21.0018 19.3379 21.0015C19.338 21.0014 19.3381 21.0012 19.3382 21.001C19.3384 21.0006 19.3386 21.0002 19.3388 20.9997C19.3392 20.9989 19.3397 20.9979 19.3402 20.9969C19.3412 20.9948 19.3424 20.9924 19.3437 20.9897C19.3464 20.9843 19.3496 20.9775 19.3534 20.9694C19.361 20.9531 19.3709 20.9316 19.3826 20.9048C19.4061 20.8511 19.4372 20.7762 19.4732 20.68C19.5454 20.4877 19.6373 20.2105 19.7278 19.8486C19.9088 19.1242 20.0835 18.0632 20.0835 16.6667H18.5835ZM13.3335 12.6667C12.6627 12.3313 12.6625 12.3315 12.6624 12.3318C12.6624 12.3319 12.6622 12.3322 12.6621 12.3324C12.6619 12.3328 12.6617 12.3332 12.6615 12.3336C12.6611 12.3345 12.6606 12.3354 12.6601 12.3364C12.6591 12.3385 12.6579 12.3409 12.6566 12.3436C12.654 12.3491 12.6507 12.3559 12.6469 12.364C12.6393 12.3802 12.6295 12.4017 12.6177 12.4286C12.5942 12.4822 12.5631 12.5572 12.5271 12.6533C12.4549 12.8457 12.363 13.1229 12.2726 13.4848C12.0915 14.2091 11.9168 15.2701 11.9168 16.6667H13.4168C13.4168 15.3965 13.5755 14.4576 13.7278 13.8486C13.804 13.5438 13.8787 13.321 13.9316 13.18C13.958 13.1095 13.979 13.0594 13.992 13.0298C13.9985 13.015 14.0029 13.0052 14.0051 13.0006C14.0062 12.9983 14.0067 12.9973 14.0066 12.9975C14.0065 12.9976 14.0063 12.9981 14.0059 12.9988C14.0057 12.9992 14.0055 12.9997 14.0052 13.0002C14.0051 13.0005 14.005 13.0008 14.0048 13.0011C14.0047 13.0012 14.0046 13.0015 14.0046 13.0016C14.0044 13.0018 14.0043 13.0021 13.3335 12.6667ZM11.9168 16.6667C11.9168 18.0632 12.0915 19.1242 12.2726 19.8486C12.363 20.2105 12.4549 20.4877 12.5271 20.68C12.5631 20.7762 12.5942 20.8511 12.6177 20.9048C12.6295 20.9316 12.6393 20.9531 12.6469 20.9694C12.6507 20.9775 12.654 20.9843 12.6566 20.9897C12.6579 20.9924 12.6591 20.9948 12.6601 20.9969C12.6606 20.9979 12.6611 20.9989 12.6615 20.9997C12.6617 21.0002 12.6619 21.0006 12.6621 21.001C12.6622 21.0012 12.6624 21.0014 12.6624 21.0015C12.6625 21.0018 12.6627 21.0021 13.3335 20.6667C14.0043 20.3313 14.0044 20.3315 14.0046 20.3318C14.0046 20.3318 14.0047 20.3321 14.0048 20.3322C14.005 20.3326 14.0051 20.3328 14.0052 20.3331C14.0055 20.3337 14.0057 20.3341 14.0059 20.3345C14.0063 20.3353 14.0065 20.3357 14.0066 20.3358C14.0067 20.3361 14.0062 20.335 14.0051 20.3327C14.0029 20.3281 13.9985 20.3184 13.992 20.3036C13.979 20.2739 13.958 20.2238 13.9316 20.1533C13.8787 20.0123 13.804 19.7895 13.7278 19.4848C13.5755 18.8758 13.4168 17.9368 13.4168 16.6667H11.9168ZM16.0002 25.9167C13.6891 25.9167 12.1606 25.2828 11.1192 24.3024C10.0629 23.3079 9.41882 21.8734 9.0498 20.1091C8.68082 18.345 8.60097 16.321 8.61845 14.2184C8.62717 13.1699 8.6598 12.1138 8.69059 11.0669C8.72128 10.0236 8.75015 8.98907 8.75015 8H7.25015C7.25015 8.96384 7.22199 9.9773 7.19124 11.0228C7.16059 12.0648 7.12738 13.1383 7.1185 14.206C7.10079 16.3357 7.17871 18.4901 7.58157 20.4162C7.98441 22.3422 8.72626 24.1097 10.091 25.3946C11.4708 26.6936 13.3986 27.4167 16.0002 27.4167V25.9167ZM23.2502 8C23.2502 8.98907 23.279 10.0236 23.3097 11.0669C23.3405 12.1138 23.3731 13.1699 23.3819 14.2184C23.3993 16.321 23.3195 18.345 22.9505 20.1091C22.5815 21.8734 21.9374 23.3079 20.8811 24.3024C19.8397 25.2828 18.3112 25.9167 16.0002 25.9167V27.4167C18.6017 27.4167 20.5295 26.6936 21.9093 25.3946C23.274 24.1097 24.0159 22.3422 24.4187 20.4162C24.8216 18.4901 24.8995 16.3357 24.8818 14.206C24.8729 13.1383 24.8397 12.0648 24.8091 11.0228C24.7783 9.9773 24.7502 8.96384 24.7502 8H23.2502ZM5.3335 8.75H26.6668V7.25H5.3335V8.75ZM20.7502 8V6.66667H19.2502V8H20.7502ZM11.2502 6.66667V8H12.7502V6.66667H11.2502ZM20.7502 6.66667C20.7502 5.9561 20.5848 5.34663 20.2607 4.84471C19.9376 4.34433 19.4897 4.00172 19.0059 3.76962C18.0691 3.3201 16.9202 3.25 16.0002 3.25V4.75C16.8971 4.75 17.7482 4.82987 18.3571 5.12201C18.6462 5.26073 18.8576 5.43688 19.0006 5.65837C19.1426 5.87833 19.2502 6.19388 19.2502 6.66667H20.7502ZM16.0002 3.25C15.0801 3.25 13.9313 3.3201 12.9944 3.76962C12.5106 4.00172 12.0627 4.34433 11.7396 4.84471C11.4155 5.34663 11.2502 5.9561 11.2502 6.66667H12.7502C12.7502 6.19388 12.8577 5.87833 12.9997 5.65837C13.1427 5.43688 13.3541 5.26073 13.6433 5.12201C14.2521 4.82987 15.1033 4.75 16.0002 4.75V3.25Z" fill="#F2F4F7"/>
</svg>
