<svg width="32" height="32" viewBox="0 0 32 32" fill="none" xmlns="http://www.w3.org/2000/svg">
<rect width="32" height="32" rx="5" fill="#347F8E"/>
<path d="M24.75 18C24.75 17.5858 24.4142 17.25 24 17.25C23.5858 17.25 23.25 17.5858 23.25 18H24.75ZM8.75 18C8.75 17.5858 8.41421 17.25 8 17.25C7.58579 17.25 7.25 17.5858 7.25 18H8.75ZM16 19L15.4697 19.5303C15.7626 19.8232 16.2374 19.8232 16.5303 19.5303L16 19ZM16.75 7C16.75 6.58579 16.4142 6.25 16 6.25C15.5858 6.25 15.25 6.58579 15.25 7L16.75 7ZM12.5303 14.4697C12.2374 14.1768 11.7626 14.1768 11.4697 14.4697C11.1768 14.7626 11.1768 15.2374 11.4697 15.5303L12.5303 14.4697ZM20.5303 15.5303C20.8232 15.2374 20.8232 14.7626 20.5303 14.4697C20.2374 14.1768 19.7626 14.1768 19.4697 14.4697L20.5303 15.5303ZM23.25 18V21.5H24.75V18H23.25ZM8.75 21.5V18H7.25V21.5H8.75ZM23.25 21.5C23.25 22.0809 23.0688 22.4501 22.7902 22.7205C22.4873 23.0145 22.0075 23.25 21.3214 23.4182C19.9304 23.7593 18.0388 23.75 16 23.75V25.25C17.9612 25.25 20.0696 25.2696 21.6786 24.8751C22.4925 24.6755 23.2627 24.3522 23.8348 23.797C24.4312 23.2182 24.75 22.4479 24.75 21.5H23.25ZM16 23.75C13.9612 23.75 12.0696 23.7593 10.6786 23.4182C9.99251 23.25 9.51273 23.0145 9.20982 22.7205C8.93116 22.4501 8.75 22.0809 8.75 21.5H7.25C7.25 22.4479 7.56884 23.2182 8.16518 23.797C8.73727 24.3522 9.50749 24.6755 10.3214 24.8751C11.9304 25.2696 14.0388 25.25 16 25.25V23.75ZM16.75 19L16.75 7L15.25 7L15.25 19L16.75 19ZM11.4697 15.5303L15.4697 19.5303L16.5303 18.4697L12.5303 14.4697L11.4697 15.5303ZM16.5303 19.5303L20.5303 15.5303L19.4697 14.4697L15.4697 18.4697L16.5303 19.5303Z" fill="white"/>
</svg>
