<svg width="32" height="32" viewBox="0 0 32 32" fill="none" xmlns="http://www.w3.org/2000/svg">
<rect width="32" height="32" rx="5" fill="#347F8E"/>
<path d="M24.5655 12.4706L25.0979 12.9988L25.0979 12.9988L24.5655 12.4706ZM12.1131 20L11.5807 20.5283L12.1131 20ZM15.3825 20.4209L15.5109 21.1599L15.3825 20.4209ZM18.3412 18.7431L17.8089 18.2149L17.8089 18.2149L18.3412 18.7431ZM11.6954 16.7053L12.4347 16.8318L11.6954 16.7053ZM13.3603 13.7235L12.8279 13.1952L12.8279 13.1952L13.3603 13.7235ZM27.2525 16C27.2525 15.5858 26.9167 15.25 26.5025 15.25C26.0883 15.25 25.7525 15.5858 25.7525 16H27.2525ZM15.918 6.08331C16.3322 6.08331 16.668 5.74753 16.668 5.33331C16.668 4.9191 16.3322 4.58331 15.918 4.58331V6.08331ZM25.0979 11.9423L20.1169 6.92268L19.0522 7.97924L24.0331 12.9988L25.0979 11.9423ZM15.254 19.682C14.7063 19.7772 14.128 19.8336 13.6275 19.7959C13.1074 19.7567 12.7983 19.6257 12.6455 19.4717L11.5807 20.5283C12.1109 21.0625 12.8594 21.2423 13.5148 21.2917C14.1896 21.3425 14.9045 21.2653 15.5109 21.1599L15.254 19.682ZM12.6455 19.4717C12.4915 19.3165 12.3605 19.002 12.3214 18.4752C12.2839 17.9687 12.3401 17.3843 12.4347 16.8318L10.9562 16.5787C10.8517 17.1892 10.7753 17.9081 10.8255 18.5861C10.8743 19.2439 11.0517 19.9951 11.5807 20.5283L12.6455 19.4717ZM13.8927 14.2518L20.1169 7.97924L19.0522 6.92268L12.8279 13.1952L13.8927 14.2518ZM24.0331 11.9423L17.8089 18.2149L18.8736 19.2714L25.0979 12.9988L24.0331 11.9423ZM19.5846 7.45096C20.1169 7.97924 20.1168 7.97939 20.1166 7.97954C20.1166 7.97957 20.1165 7.9797 20.1164 7.97976C20.1163 7.97988 20.1162 7.97994 20.1162 7.97995C20.1162 7.97996 20.1164 7.97975 20.1168 7.97933C20.1177 7.97847 20.1194 7.97676 20.122 7.97421C20.1272 7.96911 20.1358 7.96069 20.1476 7.94927C20.1713 7.9264 20.2081 7.89155 20.2566 7.84711C20.3538 7.75808 20.4974 7.63135 20.6779 7.48582C21.0419 7.19233 21.5414 6.83418 22.1012 6.55211C22.6665 6.26727 23.2475 6.08331 23.7872 6.08331C24.3003 6.08331 24.8052 6.24748 25.2784 6.72433L26.3431 5.66778C25.5711 4.88974 24.675 4.58331 23.7872 4.58331C22.9261 4.58331 22.1062 4.86995 21.4262 5.21256C20.7408 5.55793 20.1507 5.9841 19.7364 6.31806C19.5278 6.48626 19.3602 6.63404 19.2433 6.74109C19.1848 6.79468 19.1388 6.83826 19.1066 6.86932C19.0905 6.88485 19.0778 6.89727 19.0687 6.90627C19.0641 6.91077 19.0605 6.91441 19.0577 6.91716C19.0563 6.91853 19.0552 6.91968 19.0542 6.92061C19.0538 6.92107 19.0534 6.92147 19.053 6.92182C19.0529 6.92199 19.0527 6.92221 19.0526 6.92229C19.0524 6.9225 19.0522 6.92269 19.5846 7.45096ZM25.2784 6.72433C26.1747 7.62765 26.0273 8.77792 25.4502 9.94115C25.1699 10.5061 24.8142 11.0099 24.5229 11.3768C24.3784 11.5588 24.2526 11.7036 24.1643 11.8015C24.1202 11.8504 24.0856 11.8874 24.0629 11.9114C24.0515 11.9233 24.0432 11.932 24.0381 11.9372C24.0356 11.9398 24.0339 11.9415 24.033 11.9424C24.0326 11.9428 24.0324 11.943 24.0324 11.943C24.0324 11.943 24.0325 11.9429 24.0326 11.9428C24.0327 11.9428 24.0328 11.9426 24.0328 11.9426C24.033 11.9425 24.0331 11.9423 24.5655 12.4706C25.0979 12.9988 25.0981 12.9987 25.0983 12.9985C25.0984 12.9984 25.0986 12.9981 25.0987 12.998C25.0991 12.9976 25.0995 12.9972 25.0999 12.9968C25.1009 12.9958 25.102 12.9947 25.1034 12.9933C25.1061 12.9905 25.1097 12.9868 25.1142 12.9822C25.1231 12.973 25.1354 12.9602 25.1508 12.944C25.1816 12.9115 25.2249 12.8652 25.2781 12.8063C25.3843 12.6885 25.5309 12.5196 25.6977 12.3094C26.029 11.892 26.4516 11.2978 26.7939 10.6078C27.462 9.26125 27.9372 7.27427 26.3431 5.66778L25.2784 6.72433ZM15.5109 21.1599C16.8564 20.926 17.9853 20.1666 18.8736 19.2714L17.8089 18.2149C17.0568 18.9728 16.1946 19.5185 15.254 19.682L15.5109 21.1599ZM12.4347 16.8318C12.5976 15.8797 13.141 15.0093 13.8927 14.2518L12.8279 13.1952C11.9392 14.0909 11.1875 15.227 10.9562 16.5787L12.4347 16.8318ZM25.7525 16C25.7525 20.0514 25.1219 22.4442 23.7132 23.8639C22.3062 25.2818 19.9361 25.9166 15.918 25.9166V27.4166C19.9939 27.4166 22.9161 26.7966 24.7779 24.9204C26.6379 23.046 27.2525 20.1054 27.2525 16H25.7525ZM6.0835 16C6.0835 11.9485 6.71412 9.55578 8.12286 8.1361C9.52984 6.71821 11.8999 6.08331 15.918 6.08331V4.58331C11.8421 4.58331 8.91989 5.20332 7.05811 7.07955C5.19811 8.95398 4.5835 11.8946 4.5835 16H6.0835ZM15.918 25.9166C11.8999 25.9166 9.52984 25.2818 8.12286 23.8639C6.71412 22.4442 6.0835 20.0514 6.0835 16H4.5835C4.5835 20.1054 5.19811 23.046 7.05811 24.9204C8.91988 26.7966 11.8421 27.4166 15.918 27.4166V25.9166Z" fill="white"/>
</svg>
